<?xml version="1.0" encoding="UTF-8"?>
<!DOCTYPE svg PUBLIC "-//W3C//DTD SVG 1.1//EN" "http://www.w3.org/Graphics/SVG/1.1/DTD/svg11.dtd">
<!-- Creator: CorelDRAW 2020 (64 Bit) -->
<svg xmlns="http://www.w3.org/2000/svg" xml:space="preserve" width="16.4046mm" height="5.3575mm" version="1.1" style="shape-rendering:geometricPrecision; text-rendering:geometricPrecision; image-rendering:optimizeQuality; fill-rule:evenodd; clip-rule:evenodd"
viewBox="0 0 50.01 16.33"
 xmlns:xlink="http://www.w3.org/1999/xlink"
 xmlns:xodm="http://www.corel.com/coreldraw/odm/2003">
 <defs>
  <style type="text/css">
   <![CDATA[
    .fil0 {fill:#5BC0BE;fill-rule:nonzero}
   ]]>
  </style>
 </defs>
 <g id="Camada_x0020_1">
  <metadata id="CorelCorpID_0Corel-Layer"/>
  <path class="fil0" d="M6.03 0l3.22 0 6 16.33 -3.27 0 -1.36 -4.07 -6 0 -1.37 4.07 -3.27 0 6.03 -16.33zm3.86 10.03l-2.25 -6.74 -2.26 6.74 4.5 0zm7.16 6.3l0 -16.33 5.93 0c1.78,0 3.27,0.36 4.46,1.09 1.2,0.73 2.09,1.71 2.69,2.94 0.6,1.23 0.9,2.6 0.9,4.11 0,1.66 -0.33,3.1 -0.99,4.32 -0.66,1.23 -1.59,2.18 -2.79,2.85 -1.2,0.67 -2.63,1.01 -4.27,1.01l-5.93 0zm10.79 -8.19c0,-1.06 -0.19,-1.99 -0.58,-2.79 -0.38,-0.81 -0.94,-1.43 -1.66,-1.89 -0.72,-0.45 -1.59,-0.68 -2.62,-0.68l-2.76 0 0 10.77 2.76 0c1.04,0 1.92,-0.23 2.65,-0.7 0.72,-0.47 1.27,-1.11 1.64,-1.93 0.38,-0.82 0.56,-1.74 0.56,-2.77zm19 8.19l0 -10.72 -4.19 7.98 -1.77 0 -4.19 -7.98 0 10.72 -3.17 0 0 -16.33 3.4 0 4.83 9.29 4.88 -9.29 3.38 0 0 16.33 -3.17 0z"/>
 </g>
</svg>
