<?xml version="1.0" encoding="UTF-8"?>
<!DOCTYPE svg PUBLIC "-//W3C//DTD SVG 1.1//EN" "http://www.w3.org/Graphics/SVG/1.1/DTD/svg11.dtd">
<!-- Creator: CorelDRAW 2020 (64 Bit) -->
<svg xmlns="http://www.w3.org/2000/svg" xml:space="preserve" width="30.0045mm" height="50.9651mm" version="1.1" style="shape-rendering:geometricPrecision; text-rendering:geometricPrecision; image-rendering:optimizeQuality; fill-rule:evenodd; clip-rule:evenodd"
viewBox="0 0 276.12 469.01"
 xmlns:xlink="http://www.w3.org/1999/xlink"
 xmlns:xodm="http://www.corel.com/coreldraw/odm/2003">
 <defs>
  <style type="text/css">
   <![CDATA[
    .fil6 {fill:none;fill-rule:nonzero}
    .fil5 {fill:#08151A;fill-rule:nonzero}
    .fil4 {fill:#111211;fill-rule:nonzero}
    .fil7 {fill:#231F20;fill-rule:nonzero}
    .fil2 {fill:#2B2C2B;fill-rule:nonzero}
    .fil0 {fill:#9FD1CB;fill-rule:nonzero}
    .fil3 {fill:#E3624C;fill-rule:nonzero}
    .fil1 {fill:white;fill-rule:nonzero}
   ]]>
  </style>
 </defs>
 <g id="Camada_x0020_1">
  <metadata id="CorelCorpID_0Corel-Layer"/>
  <polygon class="fil0" points="102.29,254.71 104.71,254.71 104.71,226.28 102.29,226.28 "/>
  <polygon class="fil0" points="142.2,288.31 144.62,288.31 144.62,254.71 142.2,254.71 "/>
  <polygon class="fil0" points="102.29,321.92 104.71,321.92 104.71,288.32 102.29,288.32 "/>
  <polygon class="fil0" points="102.48,257.19 104.9,257.19 104.9,228.76 102.48,228.76 "/>
  <polygon class="fil0" points="142.39,290.8 144.81,290.8 144.81,257.19 142.39,257.19 "/>
  <polygon class="fil0" points="102.48,324.4 104.9,324.4 104.9,290.8 102.48,290.8 "/>
  <path class="fil1" d="M196.26 143.72l-6.16 -26.28 -9.93 -5.62 -7.34 3.94 0 17.72c0,0 6.01,29.39 21.94,27.29 12.33,-1.63 1.49,-17.04 1.49,-17.04z"/>
  <path class="fil1" d="M63.39 124.67l-61.86 52.72c0,0 23.08,43.56 74.94,53.15l-33.11 -47.05 40.51 -26.74c0,0 -3.49,-19.01 -6.1,-22.06 -2.62,-3.05 -14.38,-10.02 -14.38,-10.02z"/>
  <path class="fil2" d="M82.53 156.19l-40.89 26.98 32.09 45.6c-24.92,-5.36 -42.68,-18.75 -53.33,-29.25 -10.06,-9.92 -15.73,-19.09 -17.34,-21.85l60.45 -51.51c3.66,2.2 11.44,7.11 13.33,9.32 1.69,1.97 4.31,13.41 5.68,20.71zm-3.38 76.08l-34.1 -48.46 40.15 -26.49 -0.14 -0.79c-0.36,-1.98 -3.62,-19.43 -6.37,-22.63 -2.71,-3.16 -14.2,-9.98 -14.68,-10.27l-0.75 -0.44 -63.26 53.9 0.46 0.86c0.23,0.45 6,11.19 18.24,23.28 11.3,11.15 30.46,25.49 57.54,30.5l2.92 0.54z"/>
  <path class="fil1" d="M202.8 105.61l5.56 -8.75 24.5 -26.86c0,0 -22.22,-8.06 -55.77,-35.07l0 -2.18 97.59 23.96c0,0 -16.12,74.06 -73.19,91.06 0,0 -0.44,-15.25 -0.44,-20.48 0,-5.23 1.74,-21.67 1.74,-21.67z"/>
  <path class="fil2" d="M273.24 57.59c-1.08,4.34 -5.43,20.38 -14.84,37.75 -9.9,18.29 -27.56,41.77 -55.74,50.79 -0.11,-4.05 -0.39,-14.7 -0.39,-18.85 0,-4.73 1.48,-19.08 1.7,-21.27l5.35 -8.43 25.65 -28.12 -1.7 -0.62c-0.22,-0.08 -22.25,-8.26 -54.97,-34.51l0 -0.06 94.93 23.31zm-72.91 91.78l1.51 -0.45c13.21,-3.93 25.33,-11.23 36.02,-21.69 8.53,-8.34 16.16,-18.7 22.7,-30.79 11.12,-20.55 15.27,-39.29 15.32,-39.47l0.25 -1.15 -1.14 -0.28 -99.09 -24.33 0 4.3 0.45 0.37c28.18,22.69 48.68,32.17 54.46,34.6l-23.4 25.65 -5.77 9.08 -0.03 0.29c-0.07,0.67 -1.74,16.57 -1.74,21.8 0,5.19 0.43,20.36 0.43,20.51l0.04 1.57z"/>
  <polygon class="fil1" points="174.48,430.08 181.62,441.48 182.62,451.99 164.5,456.37 158.91,444.56 162.77,430.08 170.77,423.81 "/>
  <path class="fil2" d="M181.32 451.06l-16.14 3.9 -4.04 -9.41 4.72 -17.26 4.58 -2.69 0.08 2.75 8.98 14.28 1.83 8.43zm-17.49 6.71l20.09 -4.85 -2.09 -11.08 -7.57 -12.13 -3.16 -7.7 -8.17 7.76 -4.36 16.02 5.26 11.98z"/>
  <path class="fil1" d="M117.14 427.72l2.89 2.37 7.13 11.39 3.88 10.51c0,0 -21.46,4.82 -22.85,4.38 -1.4,-0.44 -3.74,-11.82 -3.74,-11.82l2.95 -14.47 7.49 -9.9 2.25 7.54z"/>
  <path class="fil2" d="M129.42 451.12c-7.59,1.68 -18.32,3.93 -20.74,4.07 -0.75,-1.23 -0.87,-5.75 -1.77,-10.12l3.35 -16.95 4.15 -5.3 1.68 5.61 1.65 2.69 7.42 11.66 4.26 8.35zm-20.95 6.49l0 0c2.97,0 20.8,-3.98 22.83,-4.43l1.35 -0.3 -5.31 -11.17 -7.77 -12.21 -1.38 -2.47 -2.83 -9.47 -7.97 12.45 -2.96 15.07 0.05 0.24c2.49,12.08 2.71,12.02 3.33,12.22 0.18,0.06 0.39,0.08 0.65,0.08z"/>
  <path class="fil3" d="M218.98 469.01l-66.91 0c0,0 -0.89,-15.89 6.84,-24.46 0,0 13.06,7.9 22.71,-3.08 0,0 35.86,4.08 37.36,27.54z"/>
  <path class="fil2" d="M218.98 469.01l-66.91 0c0,0 -0.18,-3.27 0.34,-7.65l64.65 0c1.05,2.29 1.73,4.83 1.92,7.65z"/>
  <path class="fil4" d="M182.62 456.37l-11.01 -9.24c2.17,-0.32 4.43,-1.1 6.63,-2.62l4.38 11.86z"/>
  <path class="fil3" d="M164.5 469.01l-66.9 0c0,0 -0.89,-15.89 6.84,-24.46 0,0 13.06,7.9 22.72,-3.08 0,0 35.85,4.08 37.35,27.54z"/>
  <path class="fil2" d="M164.5 469.01l-66.9 0c0,0 -0.18,-3.27 0.34,-7.65l64.65 0c1.06,2.29 1.74,4.83 1.92,7.65z"/>
  <path class="fil4" d="M128.15 456.37l-11.01 -9.24c2.18,-0.32 4.44,-1.1 6.63,-2.62l4.38 11.86z"/>
  <path class="fil5" d="M79.07 230.54l-6.1 3.05c0,0 -0.44,111.1 34.42,196.49l12.63 0c0,0 8.77,-92.8 18.98,-158.59l7.6 0 16.17 158.59 11.71 0c0,0 44.87,-115.89 28.32,-213.48l-65.95 -11.54c0,0 -42.97,16.77 -44.71,18.08 -1.74,1.31 -13.07,7.4 -13.07,7.4z"/>
  <path class="fil3" d="M68.03 234.32c0,0 24.4,9.88 58.09,0 33.69,-9.88 65.06,-20.85 92.94,4.39 0,0 -5.23,-45.07 -27.3,-81.96l15.68 -6.92c0,0 19.17,-27.05 -0.58,-55.22 0,0 -35.2,15.79 -44.15,16.55l-33.69 2.33 -13.8 -5.81c0,0 -23.38,-8.71 -60.56,14.81 0,0 -1.74,30.53 19.17,47.65l12.2 -6.11c0,0 -12.78,34.85 -18.01,70.29z"/>
  <line class="fil6" x1="80.57" y1="252.26" x2="103.8" y2= "252.26" />
  <polygon class="fil1" points="103.8,253.46 80.57,253.46 80.57,251.05 103.8,251.05 "/>
  <path class="fil1" d="M110.7 430.08l2.42 0c-24.09,-107.16 -20.92,-177.08 -20.88,-177.77l-2.42 -0.12c-0.03,0.7 -3.27,70.42 20.88,177.89z"/>
  <path class="fil1" d="M177.1 64.98c-4.14,-16.77 -12.86,-21.57 -12.86,-21.57l-10.24 -10.67 -17.21 6.1 -16.34 10.02 7.63 39c0,0 0.87,0.31 2.33,0.81l2.03 19.02 -17.21 0c0,0 1.75,22.22 25.71,22.44 23.96,0.22 21.78,-18.95 21.78,-18.95l-11.33 -2.39 -1.64 -14.8c6.04,1.17 11.81,1.64 14.93,0.2 8.5,-3.92 5.01,-23.53 5.01,-23.53l7.41 -5.66z"/>
  <path class="fil2" d="M161.56 112.16c0.02,1.98 -0.3,7.03 -3.87,11.01 -3.42,3.82 -8.92,5.75 -16.35,5.75l-0.39 -0c-19.51,-0.17 -23.56,-15.37 -24.34,-20.02l17.18 0 -2.25 -21.12 -0.74 -0.25c-0.71,-0.24 -1.27,-0.44 -1.66,-0.58l-7.33 -37.5 15.51 -9.51 16.36 -5.8 9.82 10.24 0.16 0.09c0.08,0.04 8.06,4.67 12.07,20.03l-7.36 5.63 0.13 0.72c0.92,5.2 1.94,19.33 -4.32,22.22 -2.44,1.13 -7.36,1.04 -14.2,-0.29l-1.61 -0.31 1.92 17.3 11.27 2.38zm-20.22 19.18c8.16,0 14.27,-2.22 18.17,-6.58 5.24,-5.87 4.45,-13.4 4.41,-13.72l-0.1 -0.87 -11.33 -2.39 -1.37 -12.31c3.15,0.55 5.88,0.82 8.14,0.82 2.52,0 4.45,-0.33 5.92,-1.01 8.35,-3.85 6.38,-20.35 5.81,-24.1l7.46 -5.71 -0.19 -0.77c-3.94,-15.99 -11.94,-21.43 -13.27,-22.23l-10.66 -11.12 -18.07 6.4 -0.11 0.07 -17.05 10.46 7.92 40.49 0.64 0.24c0,0 0.59,0.21 1.63,0.57l1.8 16.91 -17.17 0 0.1 1.3c0.02,0.24 0.5,5.92 4.04,11.68 3.29,5.35 9.93,11.76 22.86,11.88l0.42 0z"/>
  <path class="fil5" d="M164.15 44.59c0,0 6.71,-13.37 2.57,-24.04 -4.14,-10.68 -10.67,-3.92 -10.67,-3.92 0,0 3.7,-19.17 -15.47,-16.34 -19.16,2.83 -22.43,21.42 -22.43,21.42 0,0 -17.65,-3.78 -20.48,20.62 -2.83,24.4 10.02,33.77 10.02,33.77 0,0 -4.59,7.32 15.71,11.93 0,0 0.84,6.63 11.08,7.04 0,0 -3.2,-8.3 -1.82,-22.46 0,0 -7.77,-6.53 -4.28,-16.12 3.49,-9.59 10.48,-0.87 10.48,-0.87l14.35 -16.77 10.94 5.74z"/>
  <path class="fil1" d="M180.8 35.79l-3.7 -3.05 -5.01 -27.67 -28.54 4.58c0,0 5.23,11.11 23.31,10.89l-18.08 1.09c0,0 9.59,5.66 20.48,4.36 0,0 0.44,7.19 7.84,8.93l3.7 0.87z"/>
  <path class="fil2" d="M171.11 6.46l4.86 26.85c-5.12,-2.02 -5.5,-7.33 -5.51,-7.39l-0.08 -1.28 -1.27 0.15c-1.04,0.12 -2.11,0.19 -3.19,0.19 -4.85,0 -9.25,-1.26 -12.28,-2.42l13.29 -0.8 -0.09 -2.42c-0.17,0 -0.34,0 -0.51,0 -12.96,0 -18.78,-5.96 -20.81,-8.78l25.58 -4.1zm14.46 31.7l-7.37 -6.07 -5.14 -28.39 -31.29 5.02 0.69 1.45c0.17,0.36 3.29,6.74 12.59,9.88l-10.29 0.62 3.4 2.01c0.32,0.19 8.1,4.72 17.76,4.72 0.77,0 1.54,-0.03 2.29,-0.09 0.62,2.99 2.92,7.46 8.6,8.79l8.75 2.06z"/>
  <path class="fil2" d="M157.58 60.44c-0.57,-2.44 -1.83,-4.22 -2.82,-3.99 -0.99,0.23 -1.33,2.39 -0.76,4.82 0.57,2.43 1.83,4.22 2.81,3.99 0.99,-0.23 1.33,-2.39 0.76,-4.82z"/>
  <path class="fil1" d="M143.93 137.1c8.46,0.01 15.08,-2.39 19.71,-7.12 7.93,-8.1 7.06,-20.01 7.01,-20.51l-2.41 0.19c0.01,0.11 0.81,11.34 -6.34,18.64 -4.63,4.72 -11.59,6.84 -20.68,6.3 -13.12,-0.78 -22.22,-5.72 -27.05,-14.66 -3.63,-6.72 -3.39,-13.33 -3.39,-13.4l-2.41 -0.11c-0.01,0.29 -0.28,7.25 3.62,14.55 3.6,6.74 11.57,14.99 29.09,16.03 0.98,0.06 1.93,0.09 2.86,0.09z"/>
  <path class="fil2" d="M161.69 84.01c1.49,0 3.11,-0.16 4.84,-0.52l-0.49 -2.37c-13.92,2.89 -18.56,-8.41 -18.75,-8.9l-2.25 0.88c0.05,0.12 4.41,10.9 16.65,10.9z"/>
  <path class="fil1" d="M102.3 203.03c0.08,-0.09 8.3,-9.26 21.6,-18.14 12.22,-8.16 31.36,-17.74 53.16,-17.03l0.08 -2.42c-22.46,-0.72 -42.11,9.1 -54.63,17.47 -13.54,9.04 -21.93,18.41 -22.01,18.5l1.81 1.61z"/>
  <path class="fil7" d="M82.91 44.5l1.92 -0.25c-1.25,-9.59 1.2,-17.63 7.28,-23.9 4.56,-4.71 9.58,-6.6 9.63,-6.62l-0.67 -1.82c-0.22,0.08 -5.42,2.04 -10.29,7.03 -4.5,4.62 -9.52,12.8 -7.86,25.55z"/>
 </g>
</svg>
