<?xml version="1.0" encoding="UTF-8"?>
<!DOCTYPE svg PUBLIC "-//W3C//DTD SVG 1.1//EN" "http://www.w3.org/Graphics/SVG/1.1/DTD/svg11.dtd">
<!-- Creator: CorelDRAW 2020 (64 Bit) -->
<svg xmlns="http://www.w3.org/2000/svg" xml:space="preserve" width="27.9514mm" height="47.9779mm" version="1.1" style="shape-rendering:geometricPrecision; text-rendering:geometricPrecision; image-rendering:optimizeQuality; fill-rule:evenodd; clip-rule:evenodd"
viewBox="0 0 274.78 471.65"
 xmlns:xlink="http://www.w3.org/1999/xlink"
 xmlns:xodm="http://www.corel.com/coreldraw/odm/2003">
 <defs>
  <style type="text/css">
   <![CDATA[
    .fil4 {fill:#08151A;fill-rule:nonzero}
    .fil5 {fill:#111211;fill-rule:nonzero}
    .fil2 {fill:#2B2C2B;fill-rule:nonzero}
    .fil3 {fill:#2E4B56;fill-rule:nonzero}
    .fil1 {fill:#FDD9D3;fill-rule:nonzero}
    .fil0 {fill:white;fill-rule:nonzero}
   ]]>
  </style>
 </defs>
 <g id="Camada_x0020_1">
  <metadata id="CorelCorpID_0Corel-Layer"/>
  <path class="fil0" d="M145.01 102.57l-10.21 -6.74c0,0 -32.32,22.64 -51.67,29.55 0,0 -48.05,-29.73 -63.27,-46.32 0,0 17.28,47.02 56.69,70.87 0,0 55.65,-2.77 70.87,-25.58 15.22,-22.81 3.12,-13.14 3.12,-13.14l-5.53 -8.64z"/>
  <path class="fil0" d="M175.31 109.14l14.29 -12.1c0,0 55.65,27.31 83.3,43.21 0,0 -21.25,29.87 -72.51,36.02 0,0 21,-12.17 31.03,-28.41l-45.98 -15.56c0,0 -3.44,-6.91 -5.18,-10.02 -1.73,-3.12 -4.95,-13.14 -4.95,-13.14z"/>
  <path class="fil1" d="M162.55 14.68c0,0 -16.59,5.96 -24.37,33.44l3.88 2.33c0,0 -3.37,17.37 12.7,23.33 16.08,5.96 7,-15.3 7.79,-19.19 0.78,-3.89 3.62,-23.33 4.14,-25.93 0.51,-2.59 7.78,-12.96 5.7,-14 -2.07,-1.04 -9.84,0 -9.84,0z"/>
  <path class="fil0" d="M202.13 360.28l-21.79 95.41 -17.06 0 -23.91 -102.67c0,0 33.29,-2.59 35.31,-2.59 2.02,0 27.44,9.85 27.44,9.85z"/>
  <path class="fil2" d="M23.61 84.57c6.06,13.3 23.2,45.67 53.27,64.05 4.97,-0.31 55.45,-3.96 69.46,-24.99 5.55,-8.31 7,-11.65 7.35,-12.94 -0.65,0.31 -1.58,0.9 -2.35,1.53l-1.13 0.89 -6.15 -9.62 -9.24 -6.11c-5,3.46 -33.34,22.81 -51.27,29.21l-0.59 0.21 -0.53 -0.33c-1.79,-1.11 -40.52,-25.14 -58.83,-41.91zm52.62 66.67l-0.34 -0.21c-20.57,-12.45 -35.04,-31.23 -43.55,-44.79 -9.22,-14.68 -13.65,-26.61 -13.69,-26.73l-2.25 -6.14 4.42 4.82c14.06,15.34 57.17,42.47 62.46,45.77 19.04,-7.02 50.47,-28.96 50.78,-29.18l0.73 -0.51 11.16 7.38 4.93 7.71c1.01,-0.69 2.42,-1.47 3.49,-1.47 0.78,0 1.42,0.37 1.75,1 0.68,1.27 0.7,3.67 -7.63,16.18 -15.39,23.09 -69.58,26.04 -71.88,26.15l-0.39 0.02z"/>
  <path class="fil2" d="M186.36 131.25l47.02 15.91 -0.85 1.38c-7.13,11.55 -19.47,20.94 -26.41,25.62 40.51,-6.59 60.56,-28.32 64.86,-33.53 -25.92,-14.77 -74.54,-38.78 -81.19,-42.05l-12.99 10.99c0.8,2.44 3.22,9.62 4.6,12.08 1.48,2.66 4.15,7.97 4.96,9.6zm7.96 47.06l5.43 -3.15c0.2,-0.12 19.65,-11.5 29.69,-26.61l-44.92 -15.19 -0.24 -0.47c-0.03,-0.07 -3.46,-6.92 -5.16,-9.98 -1.77,-3.19 -4.92,-12.95 -5.06,-13.37l-0.26 -0.83 15.59 -13.2 0.76 0.38c0.56,0.27 56.01,27.51 83.39,43.25l1.23 0.71 -0.81 1.16c-0.24,0.31 -5.58,7.74 -17.34,16.01 -10.82,7.6 -29.33,17.33 -56.07,20.55l-6.24 0.74z"/>
  <path class="fil0" d="M162.55 14.68c0,0 -16.59,5.96 -24.37,33.44l3.88 2.33c0,0 -3.37,17.37 12.7,23.33 16.08,5.96 7,-15.3 7.79,-19.19 0.78,-3.89 3.62,-23.33 4.14,-25.93 0.51,-2.59 7.78,-12.96 5.7,-14 -2.07,-1.04 -9.84,0 -9.84,0z"/>
  <path class="fil2" d="M139.7 47.53l3.81 2.29 -0.17 0.89c-0.13,0.66 -2.94,16.38 11.88,21.88 1.74,0.64 3.21,0.97 4.37,0.97 1.16,0 2,-0.33 2.54,-0.99 1.87,-2.28 0.64,-8.36 -0.16,-12.39 -0.59,-2.95 -0.91,-4.67 -0.68,-5.82 0.41,-2.11 1.48,-9.01 2.42,-15.1 0.8,-5.17 1.49,-9.63 1.73,-10.82 0.21,-1.1 1.15,-2.83 2.66,-5.57 1.14,-2.07 3.18,-5.78 3.38,-7.14 -0.4,-0.1 -1.15,-0.21 -2.54,-0.21 -2.47,0 -5.36,0.34 -6.06,0.43 -1.43,0.59 -15.93,7.12 -23.17,31.59zm19.89 28.6l0 0c-1.49,0 -3.22,-0.37 -5.26,-1.13 -14.73,-5.46 -14.09,-20.07 -13.65,-23.87l-4.01 -2.4 0.26 -0.95c7.88,-27.8 24.48,-34.06 25.18,-34.31l0.12 -0.05 0.14 -0.02c0.15,-0.02 3.58,-0.47 6.55,-0.47 1.95,0 3.23,0.19 4.06,0.6 0.46,0.23 0.8,0.65 0.96,1.17 0.54,1.71 -1,4.7 -3.59,9.41 -1.05,1.91 -2.24,4.06 -2.39,4.83 -0.23,1.14 -0.94,5.79 -1.7,10.71 -0.94,6.12 -2.02,13.05 -2.44,15.21 -0.14,0.7 0.3,2.88 0.69,4.81 1,5.04 2.25,11.31 -0.38,14.53 -1.06,1.28 -2.58,1.93 -4.55,1.93z"/>
  <path class="fil2" d="M164.72 456.19l14.21 0 21.69 -95.1c-9.59,-3.71 -24.32,-9.22 -25.96,-9.36 -1.5,0 -23.54,1.68 -33.67,2.48l23.73 101.99zm16.66 0.8l-19.11 0 -24.48 -105.13 1.5 -0.11c1.37,-0.11 33.35,-2.6 35.41,-2.6 2.1,0 21.89,7.61 27.9,9.94l1.04 0.4 -22.27 97.5z"/>
  <path class="fil3" d="M164.35 85.98l0 8.63 -31.18 -1.29c0,0 13.56,37.77 2.67,64.73 -10.88,26.96 -37.84,124.97 -33.19,223.49l145.7 0c0,0 3.12,-63.78 -21.25,-129.11 -24.37,-65.33 -34.75,-90.74 -30.59,-120.29l-14.51 -32.15 -17.65 -14z"/>
  <path class="fil4" d="M203.76 130.83c-11.67,-1.7 -12.22,44.39 -43.18,40.74 -30.97,-3.66 -36.99,-39.86 -25.81,-57.8 11.18,-17.94 28.14,-12.49 20.7,-32.72 -7.45,-20.22 -10.04,-27.93 -2,-39.37 8.04,-11.44 3.37,-18.7 0,-31.4 -3.37,-12.7 8.14,-12.96 22.62,-4.41 14.46,8.56 32.08,10.89 38.83,26.7 6.74,15.82 -3.89,26.47 16.07,48.76 19.96,22.28 20.74,56.51 -27.22,49.51z"/>
  <polygon class="fil0" points="139.38,189.38 197.76,189.38 197.76,186.79 139.38,186.79 "/>
  <path class="fil0" d="M218.66 365.91c-0.14,-1.25 -13.91,-125.42 -38.34,-177.27l2.33 -1.1c24.62,52.24 38.45,176.83 38.58,178.09l-2.57 0.28z"/>
  <path class="fil0" d="M122.31 368.78l-2.58 -0.05c1.15,-61.82 29.98,-179.77 30.27,-180.95l2.5 0.61c-0.29,1.18 -29.04,118.85 -30.19,180.39z"/>
  <path class="fil0" d="M168.19 303.27c-0.39,-34.87 -0.9,-114.37 -0.9,-115.18l2.58 -0.01c0.01,0.8 0.51,80.3 0.9,115.17l-2.58 0.03z"/>
  <path class="fil5" d="M147.76 32.11c1.05,-1.7 2.45,-2.73 3.14,-2.31 0.69,0.42 0.4,2.14 -0.64,3.84 -1.04,1.7 -2.44,2.73 -3.13,2.31 -0.69,-0.42 -0.41,-2.14 0.63,-3.84z"/>
  <path class="fil0" d="M22.42 81.68c0,0 -12.59,1.73 -19.06,-6.84 -6.49,-8.57 4.41,-12.97 4.41,-12.97l-1.45 -13.3 11.31 17.18 2.24 -9.07c0,0 10.73,21.74 2.55,25z"/>
  <path class="fil2" d="M8.18 53.76l0.98 8.94 -0.9 0.37c-0.05,0.02 -4.57,1.9 -5.5,5.31 -0.48,1.72 0.07,3.64 1.63,5.69 4.26,5.63 11.46,6.47 15.37,6.47 1.15,0 1.99,-0.07 2.33,-0.11 0.78,-0.35 1.32,-0.97 1.67,-1.86 1.57,-4.09 -1.27,-12.56 -3.52,-17.95l-2.07 8.32 -9.98 -15.17zm11.57 29.36c-4.4,0 -12.5,-0.97 -17.42,-7.49 -2.08,-2.73 -2.77,-5.41 -2.07,-7.95 0.98,-3.55 4.45,-5.72 6.11,-6.58l-1.94 -17.71 12.64 19.2 2.39 -9.64 1.57 3.17c0.31,0.66 7.9,16.16 5.13,23.37 -0.64,1.64 -1.73,2.79 -3.27,3.4l-0.15 0.06 -0.15 0.02c-0.05,0 -1.15,0.15 -2.84,0.15z"/>
  <path class="fil4" d="M210.73 471.65c0,0 -7.26,-14.52 -36.55,-16.59 -29.3,-2.07 -40.19,16.59 -40.19,16.59l76.74 0z"/>
  <polygon class="fil2" points="171.07,471.65 173.65,471.65 173.65,381.54 171.07,381.54 "/>
  <path class="fil2" d="M227.62 47.35l-2.58 -0c0.04,-22.9 -12.9,-28.82 -13.04,-28.88l1.04 -2.37c0.6,0.26 14.61,6.68 14.58,31.25z"/>
 </g>
</svg>
