<?xml version="1.0" encoding="UTF-8"?>
<!DOCTYPE svg PUBLIC "-//W3C//DTD SVG 1.1//EN" "http://www.w3.org/Graphics/SVG/1.1/DTD/svg11.dtd">
<!-- Creator: CorelDRAW 2020 (64 Bit) -->
<svg xmlns="http://www.w3.org/2000/svg" xml:space="preserve" width="27.1812mm" height="46.9602mm" version="1.1" style="shape-rendering:geometricPrecision; text-rendering:geometricPrecision; image-rendering:optimizeQuality; fill-rule:evenodd; clip-rule:evenodd"
viewBox="0 0 246.63 426.09"
 xmlns:xlink="http://www.w3.org/1999/xlink"
 xmlns:xodm="http://www.corel.com/coreldraw/odm/2003">
 <defs>
  <style type="text/css">
   <![CDATA[
    .fil5 {fill:#08151A;fill-rule:nonzero}
    .fil1 {fill:#231F20;fill-rule:nonzero}
    .fil6 {fill:#2B2C2B;fill-rule:nonzero}
    .fil4 {fill:#2E4B56;fill-rule:nonzero}
    .fil0 {fill:#9FD1CB;fill-rule:nonzero}
    .fil3 {fill:#E3624C;fill-rule:nonzero}
    .fil2 {fill:white;fill-rule:nonzero}
   ]]>
  </style>
 </defs>
 <g id="Camada_x0020_1">
  <metadata id="CorelCorpID_0Corel-Layer"/>
  <polygon class="fil0" points="60.67,247.85 63.06,247.85 63.06,214.71 60.67,214.71 "/>
  <path class="fil1" d="M205.31 419.54l9.7 4.02 1.39 -1.96 -12.94 -28.21 -2.55 -6.75 -7.41 -2.58 2.98 14.37 1.17 4.72 7.64 16.39zm9.88 4.61l-10.23 -4.24 -0.04 -0.09 -7.7 -16.52 -1.18 -4.77 -3.16 -15.2 8.41 2.93 2.62 6.94 13.05 28.44 -1.77 2.49z"/>
  <path class="fil1" d="M72.15 407.25l16.34 16.3 3.41 -2.23 -13.9 -32.29 -4.67 1.06 0 3.52 -0.33 6.34 -0.84 7.3zm16.27 16.91l-0.13 -0.13 -16.64 -16.6 0.86 -7.51 0.33 -6.31 0 -3.9 5.43 -1.24 14.22 33.03 -4.07 2.66z"/>
  <polygon class="fil2" points="201.11,386.46 203.69,393.3 216.68,421.63 215.1,423.86 205.14,419.73 197.44,403.21 196.27,398.48 193.2,383.71 "/>
  <path class="fil1" d="M205.85 418.99l8.92 3.7 0.83 -1.15 -12.79 -27.89 -2.42 -6.42 -5.9 -2.05 2.73 13.13 1.14 4.6 7.51 16.1zm9.59 6.04l-11.01 -4.56 -7.92 -17.03 -1.17 -4.73 -3.42 -16.46 9.92 3.45 2.73 7.23 13.21 28.8 -2.34 3.29z"/>
  <polygon class="fil2" points="73.09,389.9 73.09,393.62 72.76,399.94 71.9,407.34 88.46,423.86 92.19,421.42 78.14,388.75 "/>
  <path class="fil1" d="M72.9 406.99l15.68 15.65 2.42 -1.58 -13.43 -31.19 -3.53 0.81 0 3 -0.33 6.38 -0.8 6.94zm15.43 18.09l-17.43 -17.39 0.91 -7.82 0.32 -6.27 0 -4.45 6.56 -1.49 14.69 34.13 -5.05 3.3z"/>
  <path class="fil3" d="M103.44 261.46c0,0 63.33,72.9 87.91,132.15l13.78 0c0,0 -53.23,-155.56 -79.38,-205.57 0,0 -24.78,-5.61 -26.15,-6.48 -1.38,-0.87 -15.6,1.43 -15.6,1.43l-12.39 9.63c0,0 -14.69,15.6 -12.85,61.95 1.84,46.34 12.54,139.03 12.54,139.03l9.99 0c3.04,-25.4 12.77,-102.46 22.15,-132.15z"/>
  <path class="fil2" d="M218.05 98.51l0.49 -2.41c0,0 19.67,1.55 26.35,-15.31l-18.93 8.26 -0.16 -7.13 -7.39 13.35 -1.92 3.25 1.55 0z"/>
  <path class="fil1" d="M219.55 95.18c3.7,0.03 17.26,-0.66 23.44,-12.52l-17.95 7.83 -0.11 -5.03 -5.38 9.72zm-0.72 4.29l-4 0 2.77 -4.69 9.09 -16.42 0.2 9.24 19.74 -8.62 -0.85 2.16c-5.87,14.8 -21.34,15.95 -25.94,15.95 -0.2,0 -0.37,0 -0.53,-0l-0.48 2.38z"/>
  <path class="fil4" d="M116.58 109.12l4.24 -3.21 44.85 17.2 52.08 -29.13 3.21 2.98c0,0 -16.52,39.69 -50.93,58.73 0,0 -34.18,-5.96 -48.64,-20.19 -14.46,-14.23 -13.08,-15.6 -13.08,-15.6l8.26 -10.79z"/>
  <path class="fil5" d="M71.9 398.48c2.24,2.93 12.59,19.27 15.58,21.45 2.99,2.18 5.46,0.75 5.46,0.75l5.06 5.4 -14.93 0 -8.36 -14.09c0,0 -0.44,7.46 -0.56,14.09l-1.34 0c0,0 -3.62,-12.82 -3.97,-19.66 -0.35,-6.85 3.05,-7.94 3.05,-7.94z"/>
  <path class="fil5" d="M196.27 398.48c2.25,2.93 12.6,19.27 15.59,21.45 2.99,2.18 5.46,0.75 5.46,0.75l5.06 5.4 -14.93 0 -8.36 -14.09c0,0 -0.44,7.46 -0.55,14.09l-1.35 0c0,0 -3.62,-12.82 -3.97,-19.66 -0.34,-6.85 3.05,-7.94 3.05,-7.94z"/>
  <path class="fil4" d="M82.28 89.05l38.54 16.87c0,0 4.82,14.8 17.55,20.99 0,0 -2.41,15.49 -15.83,19.62l7.23 46.11 -61.26 0c0,0 17.55,-21.33 13.77,-37.16 -3.79,-15.83 -9.29,-35.79 -9.29,-37.51 0,-1.72 1.38,-15.83 2.76,-16.87 1.37,-1.03 6.54,-12.04 6.54,-12.04z"/>
  <path class="fil4" d="M85.76 210.01c0,0 -22.41,-26.67 -29.64,-55.57l36.13 -23.06c0,0 9.98,-21.33 -9.98,-42.33l-66.76 58.33c0,0 16.72,55.03 70.25,62.63z"/>
  <path class="fil2" d="M113.79 102.83l-6.08 -25.92 -9.79 -5.54 -7.23 3.88 0 17.47c0,0 5.92,28.98 21.63,26.9 12.16,-1.61 1.47,-16.8 1.47,-16.8z"/>
  <path class="fil1" d="M91.64 92.62c0.37,1.7 5.92,26.16 19.09,26.16l0 0c0.48,0 0.97,-0.03 1.47,-0.09 2.43,-0.32 3.94,-1.21 4.59,-2.7 1.6,-3.65 -2.18,-10.33 -3.78,-12.6l-0.11 -0.15 -0.04 -0.18 -5.98 -25.51 -8.97 -5.08 -6.27 3.36 0 16.8zm19.09 28.07l0 0c-15.12,0 -20.74,-26.64 -20.98,-27.77l-0.02 -0.19 0 -18.04 8.2 -4.4 10.61 6.01 6.13 26.15c0.85,1.26 6.07,9.26 3.86,14.31 -0.93,2.13 -2.98,3.42 -6.09,3.83 -0.58,0.08 -1.15,0.11 -1.72,0.11z"/>
  <path class="fil2" d="M107.46 23.91c0,0 14.64,12.63 19.23,35.42l-6.87 1.75c0,0 5.02,16.41 -4.89,21.02 -9.91,4.61 -37.22,-9.4 -37.22,-9.4l14.8 -37.28c0,0 7.22,-9.88 8.81,-9.99 1.58,-0.11 6.14,-1.52 6.14,-1.52z"/>
  <path class="fil1" d="M78.92 72.24c3.79,1.86 20.6,9.84 30.9,9.84 1.93,0 3.51,-0.29 4.71,-0.84 9.04,-4.2 4.42,-19.72 4.37,-19.87l-0.29 -0.95 6.96 -1.78c-4.23,-19.6 -16.07,-31.5 -18.35,-33.64 -1.27,0.38 -4.36,1.27 -5.77,1.39 -1.03,0.45 -4.97,5.24 -8.1,9.51l-14.43 36.35zm30.9 11.74c-12.06,0 -31.71,-10.01 -32.54,-10.43l-0.77 -0.4 15.16 -38.2 0.07 -0.1c3.41,-4.67 7.83,-10.26 9.51,-10.38 1.21,-0.08 4.69,-1.09 5.93,-1.48l0.5 -0.15 0.4 0.34c0.61,0.53 14.94,13.11 19.55,35.95l0.18 0.89 -6.81 1.74c0.95,3.72 3.56,16.92 -5.66,21.2 -1.45,0.68 -3.31,1.02 -5.51,1.02z"/>
  <path class="fil5" d="M130.93 4.28c-3.56,-13.41 -27.44,8.94 -27.44,8.94 0,0 -1.8,-7.75 -7.08,-5.06 -5.27,2.69 -14.5,16.66 -19.52,20.59 -5.02,3.93 -20.05,5.51 -25.31,17.42 -5.26,11.92 5.47,14.57 5.47,14.57 0,0 -41.22,17.32 -52.81,41.33 -11.6,24.02 0.52,52.93 37.04,43.46 48.48,-12.56 55.95,-76.52 55.95,-76.52 0,0 -6.84,3.91 -9.79,-0.83 -2.95,-4.73 5.62,-20.15 10.84,-10.85 0,0 36.2,-39.64 32.65,-53.05z"/>
  <path class="fil6" d="M112.02 48.47c0.57,1.97 1.68,3.37 2.48,3.14 0.8,-0.24 0.98,-2.02 0.41,-3.99 -0.57,-1.97 -1.68,-3.37 -2.48,-3.14 -0.8,0.23 -0.98,2.01 -0.41,3.98z"/>
  <path class="fil6" d="M113.3 71.36c-7.77,0 -10.9,-6.32 -10.93,-6.39l2.15 -1.04c0.14,0.3 3.69,7.29 13.26,4.31l0.71 2.27c-1.92,0.6 -3.64,0.84 -5.18,0.84z"/>
  <path class="fil1" d="M42 59.16c-0.16,-0.19 -3.93,-4.59 -2.77,-11.67 1.39,-8.46 9.04,-16.78 22.74,-24.75l0.96 1.65c-12.97,7.54 -20.51,15.61 -21.81,23.36 -1.04,6.19 2.18,10 2.32,10.16l-1.44 1.25z"/>
  <path class="fil2" d="M75.09 213.71c-2.34,0 -3.5,-0.54 -3.6,-0.59l0.83 -1.72c0.05,0.02 5.11,2.21 16.42,-3.93l0.91 1.68c-6.85,3.72 -11.62,4.57 -14.55,4.57z"/>
  <path class="fil2" d="M74.72 391.3c-0.1,-1.31 -9.28,-131.09 4.91,-179.63l1.83 0.53c-14.09,48.22 -4.93,177.66 -4.84,178.96l-1.9 0.14z"/>
  <path class="fil2" d="M104.37 261.71l-1.85 -0.48c4.25,-16.41 18.02,-49.33 18.16,-49.66l1.76 0.73c-0.14,0.33 -13.85,33.12 -18.07,49.4z"/>
  <path class="fil2" d="M122.81 147.44l-0.54 -1.83c10.45,-3.07 14.16,-14.93 14.98,-18.1 -10.26,-4.1 -15.21,-16.29 -15.42,-16.82l1.77 -0.71c0.05,0.12 5.11,12.55 15.08,16.03l0.78 0.27 -0.16 0.81c-0.13,0.67 -3.35,16.47 -16.5,20.35z"/>
  <path class="fil2" d="M101.9 148.84c-6.99,0 -11.68,-3.13 -11.75,-3.18l1.08 -1.58c0.43,0.3 10.81,7.15 23.76,-1.28l1.04 1.6c-5.18,3.37 -10.04,4.43 -14.12,4.43z"/>
 </g>
</svg>
