<?xml version="1.0" encoding="UTF-8"?>
<!DOCTYPE svg PUBLIC "-//W3C//DTD SVG 1.1//EN" "http://www.w3.org/Graphics/SVG/1.1/DTD/svg11.dtd">
<!-- Creator: CorelDRAW 2020 (64 Bit) -->
<svg xmlns="http://www.w3.org/2000/svg" xml:space="preserve" width="31.048mm" height="29.3033mm" version="1.1" style="shape-rendering:geometricPrecision; text-rendering:geometricPrecision; image-rendering:optimizeQuality; fill-rule:evenodd; clip-rule:evenodd"
viewBox="0 0 10528.38 9936.75"
 xmlns:xlink="http://www.w3.org/1999/xlink"
 xmlns:xodm="http://www.corel.com/coreldraw/odm/2003">
 <defs>
  <style type="text/css">
   <![CDATA[
    .str1 {stroke:#FEFEFE;stroke-width:67.82;stroke-miterlimit:22.9256}
    .str0 {stroke:#373435;stroke-width:67.82;stroke-miterlimit:22.9256}
    .fil1 {fill:none}
    .fil6 {fill:#FEFEFE}
    .fil2 {fill:#373435}
    .fil5 {fill:#141110}
    .fil4 {fill:#262626}
    .fil3 {fill:#E1634A}
    .fil0 {fill:white}
   ]]>
  </style>
 </defs>
 <g id="Camada_x0020_1">
  <metadata id="CorelCorpID_0Corel-Layer"/>
  <g id="_2379970379696">
   <path class="fil0 str0" d="M7617.95 3166.72c-269.14,29.91 -538.32,59.82 -807.47,89.73 22.41,-216.82 44.86,-433.68 67.28,-650.5 -996.45,47 -1205.47,-906.79 -257.95,-1446.74 -86,-97.19 -171.96,-194.41 -257.95,-291.59 319.64,-362.63 734.59,-478.5 1110.32,-448.6 102.17,301.05 271.65,577.52 538.32,818.69 267.45,146.97 822.66,-162.06 347.65,622.45 -201.46,249.82 -516.28,-62.94 -616.82,319.6 -41.13,328.99 -82.23,657.96 -123.36,986.95z"/>
   <path class="fil1 str0" d="M6141.34 1585.9c433.3,398.65 841.48,354.19 1229.92,-39.78"/>
   <ellipse class="fil2 str0" cx="7163.76" cy="932.08" rx="98.14" ry="109.33"/>
   <path class="fil2 str0" d="M7472.17 419.03c-28.08,-100 -56.12,-200.04 -84.2,-300.04 2272.41,-454.12 2890.93,952.4 2770.11,3190.69l-504.68 16.82 -190.64 -757.04 0 785.08 -370.09 -16.85 -89.73 -734.56 -56.09 689.73 -1328.9 -126.15c41.13,-328.99 82.23,-657.96 123.36,-986.95 100.54,-382.54 415.36,-69.79 616.82,-319.6 475.01,-784.51 -80.2,-475.49 -347.65,-622.45 -266.67,-241.17 -436.15,-517.64 -538.32,-818.69z"/>
   <path class="fil1 str0" d="M10062.73 1027.44c278.33,474.06 392.75,1183.76 431.78,2001.91"/>
   <path class="fil3 str0" d="M10062.69 6590.07c-137.88,-2155.49 -1177.25,-3218.16 -2444.74,-3423.35 -1564.1,-1.32 -2574.04,302.92 -5002.06,1225.2 78.5,186.91 157.04,373.86 235.54,560.77 1353.28,104.68 2706.56,209.33 4059.84,314.01 -33.64,321.5 -67.31,643 -100.95,964.5 669.15,927.1 990.68,2235.55 796.27,3656.11 1222.42,157 2593.98,-1141.75 2456.1,-3297.24z"/>
   <path class="fil1 str1" d="M2733.66 4672.32c3677.03,-1222.86 4864.56,-1295.43 5817.77,-24.69 953.21,1270.74 698.44,3140.24 -897.8,4102.16"/>
   <path class="fil4 str0" d="M6815.91 6248.02c-1298.24,-424.52 -2590.83,-1314.45 -3900.29,-1290.38 -606.48,1398.35 -1212.99,2796.73 -1819.48,4195.07 108.41,93.46 216.82,186.91 325.23,280.37 1100.96,-839.24 2022.46,-1947.69 2444.88,-2904.7 1140.9,1166.44 1866.85,2837.56 3792.8,3364.75 59.14,-828.12 146.32,-2536.64 -843.14,-3645.12z"/>
   <path class="fil5" d="M3866.25 6528.39c-312.38,486.54 -624.79,973.05 -937.17,1459.59 13.19,413.5 26.35,826.96 39.54,1240.46 145.81,7.46 291.59,14.95 437.41,22.41 401.26,-605.67 707.16,-1338.53 839.31,-2303.17 -126.35,-139.78 -252.73,-279.52 -379.08,-419.3z"/>
   <path class="fil1 str1" d="M1572.34 8914.4c1016.15,-1008.38 1800.66,-2077.73 2248.64,-3235.56 689.9,940.43 1595.97,1870.92 2943.96,2781.37 69.14,-82.23 138.32,-164.5 207.46,-246.73 -123.36,177.55 -246.73,355.14 -370.09,532.69"/>
   <path class="fil6 str0" d="M1421.37 9433.09c-123.53,-91.59 -247.07,-183.15 -370.6,-274.74 -552.29,118.48 -889.8,317.06 -1000.96,600 471.04,-0.95 942.09,-1.87 1413.13,-2.81 -13.87,-107.49 -27.7,-214.96 -41.57,-322.45z"/>
   <path class="fil1 str0" d="M1037.88 9423.76c-8.44,107.49 -61.68,170.09 -193.46,162.63"/>
   <path class="fil6 str0" d="M2968.62 9228.44c145.81,7.46 291.59,14.95 437.41,22.41 91.32,160.53 143.24,330.11 137.34,513.09 -468.23,0 -936.46,0 -1404.69,0 54.53,-263.28 364.13,-429.23 829.95,-535.51z"/>
   <path class="fil1 str0" d="M3077.88 9434.14c-8.44,107.49 -61.68,170.09 -193.46,162.63"/>
   <path class="fil6 str0" d="M2851.42 4952.69c-66.33,-157.92 -132.69,-315.87 -199.02,-473.79 -526.96,410.89 -888.98,920.72 -892.48,1645.75 296.27,48.36 701.77,-613.19 1091.5,-1171.96z"/>
  </g>
 </g>
</svg>
