<?xml version="1.0" encoding="UTF-8"?>
<!DOCTYPE svg PUBLIC "-//W3C//DTD SVG 1.1//EN" "http://www.w3.org/Graphics/SVG/1.1/DTD/svg11.dtd">
<!-- Creator: CorelDRAW 2020 (64 Bit) -->
<svg xmlns="http://www.w3.org/2000/svg" xml:space="preserve" width="31.048mm" height="29.3033mm" version="1.1" style="shape-rendering:geometricPrecision; text-rendering:geometricPrecision; image-rendering:optimizeQuality; fill-rule:evenodd; clip-rule:evenodd"
viewBox="0 0 73.03 68.92"
 xmlns:xlink="http://www.w3.org/1999/xlink"
 xmlns:xodm="http://www.corel.com/coreldraw/odm/2003">
 <defs>
  <style type="text/css">
   <![CDATA[
    .str1 {stroke:#FEFEFE;stroke-width:0.47;stroke-miterlimit:22.9256}
    .str2 {stroke:#373435;stroke-width:0.47;stroke-miterlimit:22.9256}
    .str0 {stroke:#040404;stroke-width:0.47;stroke-miterlimit:22.9256}
    .fil1 {fill:none}
    .fil4 {fill:#FEFEFE}
    .fil2 {fill:#040404}
    .fil3 {fill:#D52941}
    .fil0 {fill:white}
   ]]>
  </style>
 </defs>
 <g id="Camada_x0020_1">
  <metadata id="CorelCorpID_0Corel-Layer"/>
  <g id="_1822484283184">
   <path class="fil0 str0" d="M52.84 21.96c-1.87,0.21 -3.73,0.41 -5.6,0.62 0.16,-1.5 0.31,-3.01 0.47,-4.51 -6.91,0.33 -8.36,-6.29 -1.79,-10.03 -0.6,-0.67 -1.19,-1.35 -1.79,-2.02 2.22,-2.52 5.1,-3.32 7.7,-3.11 0.71,2.09 1.88,4.01 3.73,5.68 1.86,1.02 5.71,-1.12 2.41,4.32 -1.4,1.73 -3.58,-0.44 -4.28,2.22 -0.29,2.28 -0.57,4.56 -0.86,6.85z"/>
   <path class="fil1 str0" d="M42.6 11c3.01,2.77 5.84,2.46 8.53,-0.28"/>
   <ellipse class="fil2 str0" cx="49.69" cy="6.47" rx="0.68" ry="0.76"/>
   <path class="fil2 str0" d="M51.83 2.91c-0.19,-0.69 -0.39,-1.39 -0.58,-2.08 15.76,-3.15 20.05,6.61 19.21,22.13l-3.5 0.12 -1.32 -5.25 0 5.45 -2.57 -0.12 -0.62 -5.09 -0.39 4.78 -9.22 -0.87c0.29,-2.28 0.57,-4.56 0.86,-6.85 0.7,-2.65 2.88,-0.48 4.28,-2.22 3.29,-5.44 -0.56,-3.3 -2.41,-4.32 -1.85,-1.67 -3.03,-3.59 -3.73,-5.68z"/>
   <path class="fil1 str0" d="M69.8 7.13c1.93,3.29 2.72,8.21 2.99,13.89"/>
   <path class="fil3 str0" d="M69.8 45.71c-0.96,-14.95 -8.17,-22.32 -16.96,-23.74 -10.85,-0.01 -17.85,2.1 -34.69,8.5 0.54,1.3 1.09,2.59 1.63,3.89 9.39,0.73 18.77,1.45 28.16,2.18 -0.23,2.23 -0.47,4.46 -0.7,6.69 4.64,6.43 6.87,15.51 5.52,25.36 8.48,1.09 17.99,-7.92 17.04,-22.87z"/>
   <path class="fil1 str1" d="M18.96 32.41c25.5,-8.48 33.74,-8.99 40.35,-0.17 6.61,8.81 4.84,21.78 -6.23,28.45"/>
   <path class="fil2 str0" d="M47.28 43.34c-9,-2.94 -17.97,-9.12 -27.05,-8.95 -4.21,9.7 -8.41,19.4 -12.62,29.1 0.75,0.65 1.5,1.3 2.26,1.94 7.64,-5.82 14.03,-13.51 16.96,-20.15 7.91,8.09 12.95,19.68 26.31,23.34 0.41,-5.74 1.01,-17.59 -5.85,-25.28z"/>
   <path class="fil2" d="M26.82 45.28c-2.17,3.37 -4.33,6.75 -6.5,10.12 0.09,2.87 0.18,5.74 0.27,8.6 1.01,0.05 2.02,0.1 3.03,0.16 2.78,-4.2 4.9,-9.28 5.82,-15.97 -0.88,-0.97 -1.75,-1.94 -2.63,-2.91z"/>
   <path class="fil1 str1" d="M10.91 61.83c7.05,-6.99 12.49,-14.41 15.6,-22.44 4.79,6.52 11.07,12.98 20.42,19.29 0.48,-0.57 0.96,-1.14 1.44,-1.71 -0.86,1.23 -1.71,2.46 -2.57,3.69"/>
   <path class="fil4 str0" d="M9.86 65.43c-0.86,-0.64 -1.71,-1.27 -2.57,-1.91 -3.83,0.82 -6.17,2.2 -6.94,4.16 3.27,-0.01 6.53,-0.01 9.8,-0.02 -0.1,-0.75 -0.19,-1.49 -0.29,-2.24z"/>
   <path class="fil1 str2" d="M7.2 65.36c-0.06,0.75 -0.43,1.18 -1.34,1.13"/>
   <path class="fil4 str0" d="M20.59 64.01c1.01,0.05 2.02,0.1 3.03,0.16 0.63,1.11 0.99,2.29 0.95,3.56 -3.25,0 -6.5,0 -9.74,0 0.38,-1.83 2.53,-2.98 5.76,-3.71z"/>
   <path class="fil1 str2" d="M21.35 65.44c-0.06,0.75 -0.43,1.18 -1.34,1.13"/>
   <path class="fil4 str0" d="M19.78 34.35c-0.46,-1.1 -0.92,-2.19 -1.38,-3.29 -3.66,2.85 -6.17,6.39 -6.19,11.42 2.05,0.34 4.87,-4.25 7.57,-8.13z"/>
  </g>
 </g>
</svg>
