<?xml version="1.0" encoding="UTF-8"?>
<!DOCTYPE svg PUBLIC "-//W3C//DTD SVG 1.1//EN" "http://www.w3.org/Graphics/SVG/1.1/DTD/svg11.dtd">
<!-- Creator: CorelDRAW 2020 (64 Bit) -->
<svg xmlns="http://www.w3.org/2000/svg" xml:space="preserve" width="27.973mm" height="46.9602mm" version="1.1" style="shape-rendering:geometricPrecision; text-rendering:geometricPrecision; image-rendering:optimizeQuality; fill-rule:evenodd; clip-rule:evenodd"
viewBox="0 0 60.03 100.77"
 xmlns:xlink="http://www.w3.org/1999/xlink"
 xmlns:xodm="http://www.corel.com/coreldraw/odm/2003">
 <defs>
  <style type="text/css">
   <![CDATA[
    .fil6 {fill:#040404;fill-rule:nonzero}
    .fil5 {fill:#08151A;fill-rule:nonzero}
    .fil4 {fill:#144052;fill-rule:nonzero}
    .fil1 {fill:#231F20;fill-rule:nonzero}
    .fil7 {fill:#2B2C2B;fill-rule:nonzero}
    .fil0 {fill:#9FD1CB;fill-rule:nonzero}
    .fil3 {fill:#D52941;fill-rule:nonzero}
    .fil2 {fill:white;fill-rule:nonzero}
   ]]>
  </style>
 </defs>
 <g id="Camada_x0020_1">
  <metadata id="CorelCorpID_0Corel-Layer"/>
  <polygon class="fil0" points="14.35,58.62 14.91,58.62 14.91,50.78 14.35,50.78 "/>
  <path class="fil1" d="M48.56 99.22l2.29 0.95 0.33 -0.46 -3.06 -6.67 -0.6 -1.6 -1.75 -0.61 0.71 3.4 0.28 1.12 1.81 3.88zm2.34 1.09l-2.42 -1 -0.01 -0.02 -1.82 -3.91 -0.28 -1.13 -0.75 -3.6 1.99 0.69 0.62 1.64 3.09 6.73 -0.42 0.59z"/>
  <path class="fil1" d="M17.06 96.31l3.86 3.86 0.81 -0.53 -3.29 -7.64 -1.1 0.25 0 0.83 -0.08 1.5 -0.2 1.73zm3.85 4l-0.03 -0.03 -3.93 -3.93 0.2 -1.78 0.08 -1.49 0 -0.92 1.28 -0.29 3.36 7.81 -0.96 0.63z"/>
  <polygon class="fil2" points="47.56,91.4 48.17,93.02 51.25,99.72 50.87,100.24 48.51,99.27 46.69,95.36 46.42,94.24 45.69,90.75 "/>
  <path class="fil1" d="M48.68 99.09l2.11 0.87 0.2 -0.27 -3.03 -6.6 -0.57 -1.52 -1.4 -0.48 0.65 3.11 0.27 1.09 1.78 3.81zm2.27 1.43l-2.6 -1.08 -1.87 -4.03 -0.28 -1.12 -0.81 -3.89 2.35 0.82 0.65 1.71 3.12 6.81 -0.55 0.78z"/>
  <polygon class="fil2" points="17.28,92.21 17.28,93.09 17.21,94.59 17.01,96.34 20.92,100.24 21.8,99.66 18.48,91.94 "/>
  <path class="fil1" d="M17.24 96.25l3.71 3.7 0.57 -0.37 -3.18 -7.38 -0.84 0.19 0 0.71 -0.08 1.51 -0.19 1.64zm3.65 4.28l-4.12 -4.11 0.21 -1.85 0.08 -1.48 0 -1.05 1.55 -0.35 3.47 8.07 -1.19 0.78z"/>
  <path class="fil3" d="M24.46 61.84c0,0 14.98,17.24 20.79,31.25l3.26 0c0,0 -12.59,-36.79 -18.77,-48.62 0,0 -5.86,-1.33 -6.19,-1.53 -0.33,-0.21 -3.69,0.34 -3.69,0.34l-2.93 2.28c0,0 -3.47,3.69 -3.04,14.65 0.43,10.96 2.97,32.88 2.97,32.88l2.36 0c0.72,-6.01 3.02,-24.23 5.24,-31.25z"/>
  <path class="fil2" d="M51.95 34.67l0.34 -0.47c0,0 4.07,2.29 7.18,-0.66l-4.88 -0.11 0.68 -1.55 -2.91 2.13 -0.73 0.51 0.33 0.15z"/>
  <path class="fil1" d="M52.61 34.1c0.79,0.38 3.77,1.58 6.28,-0.36l-4.63 -0.1 0.48 -1.09 -2.12 1.55zm-0.58 0.85l-0.86 -0.4 1.06 -0.73 3.58 -2.62 -0.88 2 5.09 0.12 -0.4 0.38c-2.73,2.59 -6.16,1.3 -7.15,0.84 -0.04,-0.02 -0.08,-0.04 -0.11,-0.05l-0.34 0.46z"/>
  <path class="fil4" d="M28.92 26.96l-0.35 -1.91 1.78 1.54 7.91 8.15 14.07 -1.07 0.39 0.96c0,0 -7.49,6.87 -16.77,7.54 0,0 -6.74,-4.68 -8.43,-9.17 -1.69,-4.49 -1.25,-4.65 -1.25,-4.65l2.64 -1.39z"/>
  <path class="fil5" d="M17.01 94.24c0.53,0.69 2.98,4.56 3.69,5.07 0.71,0.52 1.29,0.18 1.29,0.18l1.2 1.28 -3.53 0 -1.98 -3.33c0,0 -0.1,1.76 -0.13,3.33l-0.32 0c0,0 -0.86,-3.03 -0.94,-4.65 -0.08,-1.62 0.72,-1.88 0.72,-1.88z"/>
  <path class="fil5" d="M46.42 94.24c0.53,0.69 2.98,4.56 3.69,5.07 0.71,0.52 1.29,0.18 1.29,0.18l1.2 1.28 -3.53 0 -1.98 -3.33c0,0 -0.11,1.76 -0.13,3.33l-0.32 0c0,0 -0.86,-3.03 -0.94,-4.65 -0.08,-1.62 0.72,-1.88 0.72,-1.88z"/>
  <path class="fil4" d="M20.28 49.67c0,0 -5.3,-6.31 -7.01,-13.14l8.55 -5.45c0,0 2.36,-5.05 -2.36,-10.01l-15.79 13.8c0,0 3.95,13.01 16.61,14.81z"/>
  <path class="fil4" d="M19.46 21.06l9.12 3.99c0,0 1.14,3.5 4.15,4.96 0,0 -0.57,3.66 -3.74,4.64l1.71 10.91 -14.49 0c0,0 4.15,-5.05 3.26,-8.79 -0.9,-3.74 -2.2,-8.46 -2.2,-8.87 0,-0.41 0.33,-3.74 0.65,-3.99 0.32,-0.24 1.55,-2.85 1.55,-2.85z"/>
  <path class="fil2" d="M26.91 24.32l-1.44 -6.13 -2.32 -1.31 -1.71 0.92 0 4.13c0,0 1.4,6.85 5.12,6.36 2.88,-0.38 0.35,-3.97 0.35,-3.97z"/>
  <path class="fil1" d="M21.67 21.91c0.09,0.4 1.4,6.19 4.51,6.19l0 0c0.11,0 0.23,-0.01 0.35,-0.02 0.58,-0.08 0.93,-0.29 1.09,-0.64 0.38,-0.86 -0.52,-2.44 -0.89,-2.98l-0.02 -0.04 -0.01 -0.04 -1.41 -6.03 -2.12 -1.2 -1.48 0.8 0 3.97zm4.51 6.64l0 0c-3.58,0 -4.91,-6.3 -4.96,-6.57l-0 -0.05 0 -4.27 1.94 -1.04 2.51 1.42 1.45 6.18c0.2,0.3 1.44,2.19 0.91,3.38 -0.22,0.5 -0.71,0.81 -1.44,0.91 -0.14,0.02 -0.27,0.03 -0.41,0.03z"/>
  <path class="fil2" d="M25.41 5.66c0,0 3.46,2.99 4.55,8.38l-1.63 0.41c0,0 1.19,3.88 -1.16,4.97 -2.34,1.09 -8.8,-2.22 -8.8,-2.22l3.5 -8.82c0,0 1.71,-2.34 2.08,-2.36 0.37,-0.03 1.45,-0.36 1.45,-0.36z"/>
  <path class="fil1" d="M18.67 17.08c0.9,0.44 4.87,2.33 7.31,2.33 0.46,0 0.83,-0.07 1.11,-0.2 2.14,-0.99 1.05,-4.66 1.03,-4.7l-0.07 -0.23 1.65 -0.42c-1,-4.64 -3.8,-7.45 -4.34,-7.96 -0.3,0.09 -1.03,0.3 -1.36,0.33 -0.24,0.11 -1.18,1.24 -1.91,2.25l-3.41 8.6zm7.31 2.78c-2.85,0 -7.5,-2.37 -7.7,-2.47l-0.18 -0.09 3.59 -9.03 0.02 -0.02c0.81,-1.1 1.85,-2.43 2.25,-2.46 0.29,-0.02 1.11,-0.26 1.4,-0.35l0.12 -0.04 0.09 0.08c0.14,0.12 3.53,3.1 4.62,8.5l0.04 0.21 -1.61 0.41c0.22,0.88 0.84,4 -1.34,5.01 -0.34,0.16 -0.78,0.24 -1.3,0.24z"/>
  <path class="fil6" d="M30.96 1.01c-0.84,-3.17 -6.49,2.12 -6.49,2.12 0,0 -0.43,-1.83 -1.67,-1.2 -1.25,0.64 -3.43,3.94 -4.62,4.87 -1.19,0.93 -4.74,1.3 -5.99,4.12 -1.24,2.82 1.29,3.45 1.29,3.45 0,0 -9.75,4.1 -12.49,9.77 -2.74,5.68 0.12,12.52 8.76,10.28 11.47,-2.97 13.23,-18.1 13.23,-18.1 0,0 -1.62,0.92 -2.32,-0.2 -0.7,-1.12 1.33,-4.77 2.56,-2.57 0,0 8.56,-9.38 7.72,-12.55z"/>
  <path class="fil7" d="M26.49 11.46c0.14,0.46 0.4,0.8 0.59,0.74 0.19,-0.06 0.23,-0.48 0.1,-0.94 -0.14,-0.46 -0.4,-0.8 -0.59,-0.74 -0.19,0.05 -0.23,0.48 -0.1,0.94z"/>
  <path class="fil7" d="M26.8 16.88c-1.84,0 -2.58,-1.49 -2.59,-1.51l0.51 -0.24c0.03,0.07 0.87,1.72 3.14,1.02l0.17 0.54c-0.45,0.14 -0.86,0.2 -1.23,0.2z"/>
  <path class="fil1" d="M9.93 13.99c-0.04,-0.04 -0.93,-1.09 -0.66,-2.76 0.33,-2 2.14,-3.97 5.38,-5.85l0.23 0.39c-3.07,1.78 -4.85,3.69 -5.16,5.52 -0.25,1.46 0.52,2.37 0.55,2.4l-0.34 0.3z"/>
  <path class="fil2" d="M17.76 50.54c-0.55,0 -0.83,-0.13 -0.85,-0.14l0.2 -0.41c0.01,0.01 1.21,0.52 3.88,-0.93l0.22 0.4c-1.62,0.88 -2.75,1.08 -3.44,1.08z"/>
  <path class="fil2" d="M17.67 92.54c-0.02,-0.31 -2.2,-31 1.16,-42.48l0.43 0.13c-3.33,11.4 -1.17,42.02 -1.14,42.32l-0.45 0.03z"/>
  <path class="fil2" d="M24.68 61.89l-0.44 -0.11c1.01,-3.88 4.26,-11.67 4.29,-11.74l0.42 0.17c-0.03,0.08 -3.28,7.83 -4.27,11.68z"/>
  <path class="fil2" d="M29.05 34.87l-0.13 -0.43c2.47,-0.73 3.35,-3.53 3.54,-4.28 -2.43,-0.97 -3.6,-3.85 -3.65,-3.98l0.42 -0.17c0.01,0.03 1.21,2.97 3.57,3.79l0.19 0.06 -0.04 0.19c-0.03,0.16 -0.79,3.9 -3.9,4.81z"/>
  <path class="fil2" d="M24.1 35.2c-1.65,0 -2.76,-0.74 -2.78,-0.75l0.25 -0.37c0.1,0.07 2.56,1.69 5.62,-0.3l0.25 0.38c-1.23,0.8 -2.37,1.05 -3.34,1.05z"/>
 </g>
</svg>
