<?xml version="1.0" encoding="UTF-8"?>
<!DOCTYPE svg PUBLIC "-//W3C//DTD SVG 1.1//EN" "http://www.w3.org/Graphics/SVG/1.1/DTD/svg11.dtd">
<!-- Creator: CorelDRAW 2020 (64 Bit) -->
<svg xmlns="http://www.w3.org/2000/svg" xml:space="preserve" width="27.9514mm" height="47.9779mm" version="1.1" style="shape-rendering:geometricPrecision; text-rendering:geometricPrecision; image-rendering:optimizeQuality; fill-rule:evenodd; clip-rule:evenodd"
viewBox="0 0 55.77 95.72"
 xmlns:xlink="http://www.w3.org/1999/xlink"
 xmlns:xodm="http://www.corel.com/coreldraw/odm/2003">
 <defs>
  <style type="text/css">
   <![CDATA[
    .fil4 {fill:#040404;fill-rule:nonzero}
    .fil6 {fill:#08151A;fill-rule:nonzero}
    .fil5 {fill:#111211;fill-rule:nonzero}
    .fil3 {fill:#144052;fill-rule:nonzero}
    .fil2 {fill:#2B2C2B;fill-rule:nonzero}
    .fil1 {fill:#FDD9D3;fill-rule:nonzero}
    .fil0 {fill:white;fill-rule:nonzero}
   ]]>
  </style>
 </defs>
 <g id="Camada_x0020_1">
  <metadata id="CorelCorpID_0Corel-Layer"/>
  <path class="fil0" d="M29.43 20.82l-2.07 -1.37c0,0 -6.56,4.6 -10.49,6 0,0 -9.75,-6.03 -12.84,-9.4 0,0 3.51,9.54 11.51,14.38 0,0 11.29,-0.56 14.38,-5.19 3.09,-4.63 0.63,-2.67 0.63,-2.67l-1.12 -1.75z"/>
  <path class="fil0" d="M35.58 22.15l2.9 -2.46c0,0 11.29,5.54 16.91,8.77 0,0 -4.31,6.06 -14.72,7.31 0,0 4.26,-2.47 6.3,-5.77l-9.33 -3.16c0,0 -0.7,-1.4 -1.05,-2.03 -0.35,-0.63 -1,-2.67 -1,-2.67z"/>
  <path class="fil1" d="M32.99 2.98c0,0 -3.37,1.21 -4.95,6.79l0.79 0.47c0,0 -0.68,3.53 2.58,4.74 3.26,1.21 1.42,-3.1 1.58,-3.89 0.16,-0.79 0.73,-4.74 0.84,-5.26 0.1,-0.53 1.58,-2.63 1.16,-2.84 -0.42,-0.21 -2,0 -2,0z"/>
  <path class="fil0" d="M41.02 73.12l-4.42 19.36 -3.46 0 -4.85 -20.84c0,0 6.76,-0.53 7.17,-0.53 0.41,0 5.57,2 5.57,2z"/>
  <path class="fil2" d="M4.79 17.16c1.23,2.7 4.71,9.27 10.81,13 1.01,-0.06 11.25,-0.8 14.1,-5.07 1.13,-1.69 1.42,-2.36 1.49,-2.63 -0.13,0.06 -0.32,0.18 -0.48,0.31l-0.23 0.18 -1.25 -1.95 -1.88 -1.24c-1.01,0.7 -6.77,4.63 -10.41,5.93l-0.12 0.04 -0.11 -0.07c-0.36,-0.22 -8.22,-5.1 -11.94,-8.51zm10.68 13.53l-0.07 -0.04c-4.18,-2.53 -7.11,-6.34 -8.84,-9.09 -1.87,-2.98 -2.77,-5.4 -2.78,-5.42l-0.46 -1.25 0.9 0.98c2.85,3.11 11.6,8.62 12.68,9.29 3.86,-1.42 10.24,-5.88 10.31,-5.92l0.15 -0.1 2.26 1.5 1 1.57c0.21,-0.14 0.49,-0.3 0.71,-0.3 0.16,0 0.29,0.07 0.36,0.2 0.14,0.26 0.14,0.75 -1.55,3.28 -3.12,4.69 -14.12,5.28 -14.59,5.31l-0.08 0z"/>
  <path class="fil2" d="M37.82 26.64l9.54 3.23 -0.17 0.28c-1.45,2.34 -3.95,4.25 -5.36,5.2 8.22,-1.34 12.29,-5.75 13.16,-6.8 -5.26,-3 -15.13,-7.87 -16.48,-8.53l-2.64 2.23c0.16,0.49 0.65,1.95 0.93,2.45 0.3,0.54 0.84,1.62 1.01,1.95zm1.62 9.55l1.1 -0.64c0.04,-0.02 3.99,-2.33 6.03,-5.4l-9.12 -3.08 -0.05 -0.1c-0.01,-0.01 -0.7,-1.4 -1.05,-2.02 -0.36,-0.65 -1,-2.63 -1.03,-2.71l-0.05 -0.17 3.16 -2.68 0.16 0.08c0.11,0.05 11.37,5.58 16.92,8.78l0.25 0.14 -0.17 0.23c-0.05,0.06 -1.13,1.57 -3.52,3.25 -2.2,1.54 -5.95,3.52 -11.38,4.17l-1.27 0.15z"/>
  <path class="fil0" d="M32.99 2.98c0,0 -3.37,1.21 -4.95,6.79l0.79 0.47c0,0 -0.68,3.53 2.58,4.74 3.26,1.21 1.42,-3.1 1.58,-3.89 0.16,-0.79 0.73,-4.74 0.84,-5.26 0.1,-0.53 1.58,-2.63 1.16,-2.84 -0.42,-0.21 -2,0 -2,0z"/>
  <path class="fil2" d="M28.35 9.65l0.77 0.46 -0.04 0.18c-0.03,0.13 -0.6,3.32 2.41,4.44 0.35,0.13 0.65,0.2 0.89,0.2 0.24,0 0.41,-0.07 0.52,-0.2 0.38,-0.46 0.13,-1.7 -0.03,-2.51 -0.12,-0.6 -0.19,-0.95 -0.14,-1.18 0.08,-0.43 0.3,-1.83 0.49,-3.07 0.16,-1.05 0.3,-1.95 0.35,-2.2 0.04,-0.22 0.23,-0.57 0.54,-1.13 0.23,-0.42 0.65,-1.17 0.69,-1.45 -0.08,-0.02 -0.23,-0.04 -0.52,-0.04 -0.5,0 -1.09,0.07 -1.23,0.09 -0.29,0.12 -3.23,1.45 -4.7,6.41zm4.04 5.81l0 0c-0.3,0 -0.65,-0.08 -1.07,-0.23 -2.99,-1.11 -2.86,-4.07 -2.77,-4.85l-0.81 -0.49 0.05 -0.19c1.6,-5.64 4.97,-6.91 5.11,-6.96l0.03 -0.01 0.03 -0c0.03,-0 0.73,-0.1 1.33,-0.1 0.4,0 0.66,0.04 0.82,0.12 0.09,0.05 0.16,0.13 0.2,0.24 0.11,0.35 -0.2,0.95 -0.73,1.91 -0.21,0.39 -0.45,0.83 -0.49,0.98 -0.05,0.23 -0.19,1.17 -0.35,2.17 -0.19,1.24 -0.41,2.65 -0.5,3.09 -0.03,0.14 0.06,0.58 0.14,0.98 0.2,1.02 0.46,2.3 -0.08,2.95 -0.22,0.26 -0.52,0.39 -0.92,0.39z"/>
  <path class="fil2" d="M33.43 92.58l2.88 0 4.4 -19.3c-1.95,-0.75 -4.94,-1.87 -5.27,-1.9 -0.31,0 -4.78,0.34 -6.83,0.5l4.82 20.7zm3.38 0.16l-3.88 0 -4.97 -21.34 0.3 -0.02c0.28,-0.02 6.77,-0.53 7.19,-0.53 0.43,0 4.44,1.54 5.66,2.02l0.21 0.08 -4.52 19.79z"/>
  <path class="fil3" d="M33.36 17.45l0 1.75 -6.33 -0.26c0,0 2.75,7.67 0.54,13.14 -2.21,5.47 -7.68,25.36 -6.74,45.36l29.57 0c0,0 0.63,-12.94 -4.31,-26.2 -4.95,-13.26 -7.05,-18.42 -6.21,-24.41l-2.95 -6.52 -3.58 -2.84z"/>
  <path class="fil4" d="M41.35 26.55c-2.37,-0.35 -2.48,9.01 -8.76,8.27 -6.29,-0.74 -7.51,-8.09 -5.24,-11.73 2.27,-3.64 5.71,-2.54 4.2,-6.64 -1.51,-4.1 -2.04,-5.67 -0.41,-7.99 1.63,-2.32 0.68,-3.8 0,-6.37 -0.68,-2.58 1.65,-2.63 4.59,-0.89 2.94,1.74 6.51,2.21 7.88,5.42 1.37,3.21 -0.79,5.37 3.26,9.9 4.05,4.52 4.21,11.47 -5.53,10.05z"/>
  <polygon class="fil0" points="28.29,38.43 40.14,38.43 40.14,37.91 28.29,37.91 "/>
  <path class="fil0" d="M44.38 74.26c-0.03,-0.25 -2.82,-25.45 -7.78,-35.98l0.47 -0.22c5,10.6 7.8,35.89 7.83,36.14l-0.52 0.06z"/>
  <path class="fil0" d="M24.82 74.85l-0.52 -0.01c0.23,-12.55 6.08,-36.48 6.14,-36.72l0.51 0.12c-0.06,0.24 -5.89,24.12 -6.13,36.61z"/>
  <path class="fil0" d="M34.13 61.55c-0.08,-7.08 -0.18,-23.21 -0.18,-23.38l0.52 -0c0,0.16 0.1,16.3 0.18,23.37l-0.52 0.01z"/>
  <path class="fil5" d="M29.99 6.52c0.21,-0.34 0.5,-0.55 0.64,-0.47 0.14,0.09 0.08,0.43 -0.13,0.78 -0.21,0.34 -0.5,0.55 -0.64,0.47 -0.14,-0.09 -0.08,-0.43 0.13,-0.78z"/>
  <path class="fil0" d="M4.55 16.58c0,0 -2.55,0.35 -3.87,-1.39 -1.32,-1.74 0.89,-2.63 0.89,-2.63l-0.29 -2.7 2.29 3.49 0.46 -1.84c0,0 2.18,4.41 0.52,5.07z"/>
  <path class="fil2" d="M1.66 10.91l0.2 1.81 -0.18 0.07c-0.01,0 -0.93,0.39 -1.12,1.08 -0.1,0.35 0.02,0.74 0.33,1.16 0.86,1.14 2.33,1.31 3.12,1.31 0.23,0 0.4,-0.01 0.47,-0.02 0.16,-0.07 0.27,-0.2 0.34,-0.38 0.32,-0.83 -0.26,-2.55 -0.71,-3.64l-0.42 1.69 -2.03 -3.08zm2.35 5.96c-0.89,0 -2.54,-0.2 -3.54,-1.52 -0.42,-0.55 -0.56,-1.1 -0.42,-1.61 0.2,-0.72 0.9,-1.16 1.24,-1.33l-0.39 -3.59 2.56 3.9 0.49 -1.96 0.32 0.64c0.06,0.13 1.6,3.28 1.04,4.74 -0.13,0.33 -0.35,0.57 -0.66,0.69l-0.03 0.01 -0.03 0c-0.01,0 -0.23,0.03 -0.58,0.03z"/>
  <path class="fil6" d="M42.77 95.72c0,0 -1.47,-2.95 -7.42,-3.37 -5.95,-0.42 -8.16,3.37 -8.16,3.37l15.57 0z"/>
  <polygon class="fil2" points="34.72,95.72 35.24,95.72 35.24,77.43 34.72,77.43 "/>
  <path class="fil2" d="M46.2 9.61l-0.52 -0c0.01,-4.65 -2.62,-5.85 -2.65,-5.86l0.21 -0.48c0.12,0.05 2.97,1.35 2.96,6.34z"/>
 </g>
</svg>
