<?xml version="1.0" encoding="UTF-8"?>
<!DOCTYPE svg PUBLIC "-//W3C//DTD SVG 1.1//EN" "http://www.w3.org/Graphics/SVG/1.1/DTD/svg11.dtd">
<!-- Creator: CorelDRAW 2020 (64 Bit) -->
<svg xmlns="http://www.w3.org/2000/svg" xml:space="preserve" width="30.0045mm" height="50.9651mm" version="1.1" style="shape-rendering:geometricPrecision; text-rendering:geometricPrecision; image-rendering:optimizeQuality; fill-rule:evenodd; clip-rule:evenodd"
viewBox="0 0 64.57 109.68"
 xmlns:xlink="http://www.w3.org/1999/xlink"
 xmlns:xodm="http://www.corel.com/coreldraw/odm/2003">
 <defs>
  <style type="text/css">
   <![CDATA[
    .fil5 {fill:none;fill-rule:nonzero}
    .fil4 {fill:#040404;fill-rule:nonzero}
    .fil6 {fill:#08151A;fill-rule:nonzero}
    .fil3 {fill:#111211;fill-rule:nonzero}
    .fil7 {fill:#231F20;fill-rule:nonzero}
    .fil1 {fill:#2B2C2B;fill-rule:nonzero}
    .fil2 {fill:#D52941;fill-rule:nonzero}
    .fil0 {fill:white;fill-rule:nonzero}
   ]]>
  </style>
 </defs>
 <g id="Camada_x0020_1">
  <metadata id="CorelCorpID_0Corel-Layer"/>
  <path class="fil0" d="M49.75 29.15l14.47 12.33c0,0 -5.4,10.19 -17.52,12.43l7.74 -11 -9.47 -6.25c0,0 0.82,-4.45 1.43,-5.16 0.61,-0.71 3.36,-2.34 3.36,-2.34z"/>
  <path class="fil1" d="M45.27 36.53l9.56 6.31 -7.5 10.66c5.83,-1.25 9.98,-4.39 12.47,-6.84 2.35,-2.32 3.68,-4.46 4.05,-5.11l-14.14 -12.04c-0.86,0.52 -2.67,1.66 -3.12,2.18 -0.39,0.46 -1.01,3.14 -1.33,4.84zm0.79 17.79l7.97 -11.33 -9.39 -6.19 0.03 -0.18c0.09,-0.46 0.85,-4.54 1.49,-5.29 0.63,-0.74 3.32,-2.33 3.43,-2.4l0.17 -0.1 14.79 12.61 -0.11 0.2c-0.05,0.11 -1.4,2.62 -4.27,5.44 -2.64,2.61 -7.12,5.96 -13.46,7.13l-0.68 0.13z"/>
  <path class="fil0" d="M17.15 24.7l-1.3 -2.05 -5.73 -6.28c0,0 5.2,-1.88 13.04,-8.2l0 -0.51 -22.82 5.6c0,0 3.77,17.32 17.12,21.29 0,0 0.1,-3.57 0.1,-4.79 0,-1.22 -0.41,-5.07 -0.41,-5.07z"/>
  <path class="fil1" d="M0.67 13.47c0.25,1.01 1.27,4.77 3.47,8.83 2.32,4.28 6.44,9.77 13.04,11.88 0.02,-0.95 0.09,-3.44 0.09,-4.41 0,-1.11 -0.34,-4.46 -0.4,-4.97l-1.25 -1.97 -6 -6.58 0.4 -0.14c0.05,-0.02 5.2,-1.93 12.85,-8.07l0 -0.01 -22.2 5.45zm17.05 21.46l-0.35 -0.11c-3.09,-0.92 -5.92,-2.63 -8.42,-5.07 -1.99,-1.95 -3.78,-4.37 -5.31,-7.2 -2.6,-4.81 -3.57,-9.19 -3.58,-9.23l-0.06 -0.27 0.27 -0.07 23.17 -5.69 0 1.01 -0.11 0.09c-6.59,5.31 -11.38,7.52 -12.74,8.09l5.47 6 1.35 2.12 0.01 0.07c0.02,0.16 0.41,3.87 0.41,5.1 0,1.21 -0.1,4.76 -0.1,4.8l-0.01 0.37z"/>
  <polygon class="fil0" points="23.77,100.58 22.1,103.24 21.87,105.7 26.1,106.72 27.41,103.96 26.51,100.58 24.64,99.11 "/>
  <path class="fil1" d="M22.17 105.48l3.77 0.91 0.95 -2.2 -1.1 -4.04 -1.07 -0.63 -0.02 0.64 -2.1 3.34 -0.43 1.97zm4.09 1.57l-4.7 -1.13 0.49 -2.59 1.77 -2.84 0.74 -1.8 1.91 1.82 1.02 3.75 -1.23 2.8z"/>
  <path class="fil0" d="M37.18 100.02l-0.68 0.55 -1.67 2.66 -0.91 2.46c0,0 5.02,1.13 5.34,1.02 0.33,-0.1 0.88,-2.76 0.88,-2.76l-0.69 -3.38 -1.75 -2.32 -0.53 1.76z"/>
  <path class="fil1" d="M34.31 105.49c1.78,0.39 4.28,0.92 4.85,0.95 0.18,-0.29 0.2,-1.34 0.41,-2.37l-0.78 -3.96 -0.97 -1.24 -0.39 1.31 -0.39 0.63 -1.74 2.73 -1 1.95zm4.9 1.52l0 0c-0.7,0 -4.87,-0.93 -5.34,-1.04l-0.32 -0.07 1.24 -2.61 1.82 -2.86 0.32 -0.58 0.66 -2.22 1.86 2.91 0.69 3.52 -0.01 0.06c-0.58,2.82 -0.63,2.81 -0.78,2.86 -0.04,0.01 -0.09,0.02 -0.15,0.02z"/>
  <path class="fil2" d="M13.36 109.68l15.65 0c0,0 0.21,-3.72 -1.6,-5.72 0,0 -3.05,1.85 -5.31,-0.72 0,0 -8.38,0.95 -8.74,6.44z"/>
  <path class="fil1" d="M13.36 109.68l15.65 0c0,0 0.04,-0.77 -0.08,-1.79l-15.12 0c-0.25,0.53 -0.41,1.13 -0.45,1.79z"/>
  <path class="fil3" d="M21.87 106.72l2.57 -2.16c-0.51,-0.07 -1.04,-0.26 -1.55,-0.61l-1.02 2.77z"/>
  <path class="fil2" d="M26.1 109.68l15.65 0c0,0 0.21,-3.72 -1.6,-5.72 0,0 -3.05,1.85 -5.31,-0.72 0,0 -8.38,0.95 -8.73,6.44z"/>
  <path class="fil1" d="M26.1 109.68l15.65 0c0,0 0.04,-0.77 -0.08,-1.79l-15.12 0c-0.25,0.53 -0.41,1.13 -0.45,1.79z"/>
  <path class="fil3" d="M34.6 106.72l2.57 -2.16c-0.51,-0.07 -1.04,-0.26 -1.55,-0.61l-1.02 2.77z"/>
  <path class="fil4" d="M46.08 53.91l1.43 0.71c0,0 0.1,25.98 -8.05,45.95l-2.95 0c0,0 -2.05,-21.7 -4.44,-37.09l-1.78 0 -3.78 37.09 -2.74 0c0,0 -10.49,-27.1 -6.62,-49.92l15.42 -2.7c0,0 10.05,3.92 10.46,4.23 0.41,0.31 3.06,1.73 3.06,1.73z"/>
  <path class="fil2" d="M48.66 54.8c0,0 -5.71,2.31 -13.59,0 -7.88,-2.31 -15.21,-4.88 -21.73,1.03 0,0 1.22,-10.54 6.38,-19.17l-3.67 -1.62c0,0 -4.48,-6.33 0.14,-12.91 0,0 8.23,3.69 10.32,3.87l7.88 0.54 3.23 -1.36c0,0 5.47,-2.04 14.16,3.46 0,0 0.41,7.14 -4.48,11.14l-2.85 -1.43c0,0 2.99,8.15 4.21,16.44z"/>
  <line class="fil5" x1="45.73" y1="58.99" x2="40.3" y2= "58.99" />
  <polygon class="fil0" points="40.3,59.27 45.73,59.27 45.73,58.71 40.3,58.71 "/>
  <path class="fil0" d="M38.68 100.58l-0.57 0c5.63,-25.06 4.89,-41.41 4.88,-41.57l0.57 -0.03c0.01,0.16 0.77,16.47 -4.88,41.6z"/>
  <path class="fil0" d="M23.16 15.2c0.97,-3.92 3.01,-5.04 3.01,-5.04l2.39 -2.5 4.02 1.43 3.82 2.34 -1.78 9.12c0,0 -0.2,0.07 -0.55,0.19l-0.47 4.45 4.03 0c0,0 -0.41,5.2 -6.01,5.25 -5.6,0.05 -5.09,-4.43 -5.09,-4.43l2.65 -0.56 0.38 -3.46c-1.41,0.27 -2.76,0.38 -3.49,0.05 -1.99,-0.92 -1.17,-5.5 -1.17,-5.5l-1.73 -1.32z"/>
  <path class="fil1" d="M26.79 26.23c-0.01,0.46 0.07,1.64 0.91,2.57 0.8,0.89 2.09,1.34 3.82,1.34l0.09 -0c4.56,-0.04 5.51,-3.6 5.69,-4.68l-4.02 0 0.53 -4.94 0.17 -0.06c0.17,-0.06 0.3,-0.1 0.39,-0.13l1.71 -8.77 -3.63 -2.22 -3.82 -1.36 -2.3 2.4 -0.04 0.02c-0.02,0.01 -1.88,1.09 -2.82,4.68l1.72 1.32 -0.03 0.17c-0.22,1.22 -0.45,4.52 1.01,5.2 0.57,0.26 1.72,0.24 3.32,-0.07l0.38 -0.07 -0.45 4.05 -2.64 0.56zm4.73 4.48c-1.91,0 -3.34,-0.52 -4.25,-1.54 -1.22,-1.37 -1.04,-3.13 -1.03,-3.21l0.02 -0.2 2.65 -0.56 0.32 -2.88c-0.74,0.13 -1.38,0.19 -1.9,0.19 -0.59,0 -1.04,-0.08 -1.38,-0.24 -1.95,-0.9 -1.49,-4.76 -1.36,-5.64l-1.74 -1.33 0.05 -0.18c0.92,-3.74 2.79,-5.01 3.1,-5.2l2.49 -2.6 4.23 1.5 0.02 0.02 3.99 2.45 -1.85 9.47 -0.15 0.06c0,0 -0.14,0.05 -0.38,0.13l-0.42 3.96 4.02 0 -0.02 0.3c-0,0.06 -0.12,1.38 -0.95,2.73 -0.77,1.25 -2.32,2.75 -5.35,2.78l-0.1 0z"/>
  <path class="fil6" d="M26.18 10.43c0,0 -1.57,-3.13 -0.6,-5.62 0.97,-2.5 2.5,-0.92 2.5,-0.92 0,0 -0.87,-4.48 3.62,-3.82 4.48,0.66 5.25,5.01 5.25,5.01 0,0 4.13,-0.88 4.79,4.82 0.66,5.71 -2.34,7.9 -2.34,7.9 0,0 1.07,1.71 -3.67,2.79 0,0 -0.2,1.55 -2.59,1.65 0,0 0.75,-1.94 0.43,-5.25 0,0 1.82,-1.53 1,-3.77 -0.82,-2.24 -2.45,-0.2 -2.45,-0.2l-3.36 -3.92 -2.56 1.34z"/>
  <path class="fil0" d="M22.29 8.37l0.87 -0.71 1.17 -6.47 6.67 1.07c0,0 -1.22,2.6 -5.45,2.55l4.23 0.25c0,0 -2.24,1.32 -4.79,1.02 0,0 -0.1,1.68 -1.83,2.09l-0.87 0.2z"/>
  <path class="fil1" d="M24.56 1.51l-1.14 6.28c1.2,-0.47 1.29,-1.71 1.29,-1.73l0.02 -0.3 0.3 0.04c0.24,0.03 0.49,0.04 0.75,0.04 1.13,0 2.16,-0.29 2.87,-0.57l-3.11 -0.19 0.02 -0.57c0.04,0 0.08,0 0.12,0 3.03,0 4.39,-1.39 4.87,-2.05l-5.98 -0.96zm-3.38 7.41l1.72 -1.42 1.2 -6.64 7.32 1.17 -0.16 0.34c-0.04,0.08 -0.77,1.58 -2.94,2.31l2.41 0.15 -0.8 0.47c-0.08,0.05 -1.89,1.1 -4.15,1.1 -0.18,0 -0.36,-0.01 -0.54,-0.02 -0.14,0.7 -0.68,1.74 -2.01,2.06l-2.05 0.48z"/>
  <path class="fil1" d="M27.72 14.13c0.13,-0.57 0.43,-0.99 0.66,-0.93 0.23,0.05 0.31,0.56 0.18,1.13 -0.13,0.57 -0.43,0.99 -0.66,0.93 -0.23,-0.05 -0.31,-0.56 -0.18,-1.13z"/>
  <path class="fil0" d="M30.91 32.06c-1.98,0 -3.53,-0.56 -4.61,-1.66 -1.85,-1.89 -1.65,-4.68 -1.64,-4.8l0.56 0.05c-0,0.03 -0.19,2.65 1.48,4.36 1.08,1.1 2.71,1.6 4.84,1.47 3.07,-0.18 5.2,-1.34 6.33,-3.43 0.85,-1.57 0.79,-3.12 0.79,-3.13l0.56 -0.02c0,0.07 0.07,1.7 -0.85,3.4 -0.84,1.58 -2.71,3.5 -6.8,3.75 -0.23,0.01 -0.45,0.02 -0.67,0.02z"/>
  <path class="fil1" d="M26.76 19.65c-0.35,0 -0.73,-0.04 -1.13,-0.12l0.11 -0.55c3.26,0.68 4.34,-1.97 4.38,-2.08l0.53 0.21c-0.01,0.03 -1.03,2.55 -3.89,2.55z"/>
  <path class="fil0" d="M40.65 47.48c-0.02,-0.02 -1.94,-2.17 -5.05,-4.24 -2.86,-1.91 -7.33,-4.15 -12.43,-3.98l-0.02 -0.57c5.25,-0.17 9.85,2.13 12.78,4.09 3.17,2.12 5.13,4.3 5.15,4.33l-0.42 0.38z"/>
  <path class="fil7" d="M45.18 10.41l-0.45 -0.06c0.29,-2.24 -0.28,-4.12 -1.7,-5.59 -1.07,-1.1 -2.24,-1.54 -2.25,-1.55l0.16 -0.42c0.05,0.02 1.27,0.48 2.41,1.64 1.05,1.08 2.23,2.99 1.84,5.98z"/>
 </g>
</svg>
